<svg version="1.2" xmlns="http://www.w3.org/2000/svg" viewBox="70 10 372 492" width="372" height="492">
    <style>
        .a {
            fill: #d83bb1
        }

        .b {
            fill: #c43bb1
        }

        .c {
            fill: #d73ab1
        }

        .d {
            fill: #d93bc6
        }

        .e {
            fill: #f0f
        }

        .f {
            fill: #c33bb0
        }

        .g {
            fill: #b127b1
        }

        .h {
            fill: #8927b1
        }

        .i {
            fill: #b13bb1
        }

        .j {
            fill: #9d27b1
        }

        .k {
            fill: #d83ab0
        }

        .l {
            fill: #c43cb1
        }

        .m {
            fill: #8926b0
        }

        .n {
            fill: #7627b1
        }

        .o {
            fill: #8926b1
        }

        .p {
            fill: #6227b1
        }

        .q {
            fill: #7528b1
        }

        .r {
            fill: #000014
        }

        .s {
            fill: #7526b1
        }

        .t {
            fill: #6214b1
        }

        .u {
            fill: #62149d
        }

        .v {
            fill: #3b14b1
        }

        .w {
            fill: #4e14b1
        }

        .x {
            fill: #621489
        }

        .y {
            fill: #5b24b6
        }

        .z {
            fill: #271489
        }

        .A {
            fill: #3b1489
        }

        .B {
            fill: #27144e
        }

        .C {
            fill: #3b144e
        }

        .D {
            fill: #140027
        }

        .E {
            fill: #271476
        }

        .F {
            fill: #4e14b2
        }

        .G {
            fill: #4d13b1
        }

        .H {
            fill: #4e14b0
        }

        .I {
            fill: #3c14b1
        }

        .J {
            fill: #3f15d4
        }
    </style>
    <path fill-rule="evenodd" class="a" d="m238 10h12v36h-12z" />
    <path fill-rule="evenodd" class="a" d="m250 34h12v12h-12z" />
    <path fill-rule="evenodd" class="a" d="m238 46h36v12h-36z" />
    <path fill-rule="evenodd" class="a" d="m250 58h36v12h-36z" />
    <path fill-rule="evenodd" class="a" d="m250 70h48v12h-48z" />
    <path fill-rule="evenodd" class="a" d="m250 82h60v12h-60z" />
    <path fill-rule="evenodd" class="a" d="m250 94h72v12h-72z" />
    <path fill-rule="evenodd" class="a" d="m250 106h84v12h-84z" />
    <path fill-rule="evenodd" class="a" d="m250 118h96v12h-96z" />
    <path fill-rule="evenodd" class="a" d="m274 130h72v12h-72z" />
    <path fill-rule="evenodd" class="a" d="m298 142h60v12h-60z" />
    <path fill-rule="evenodd" class="a" d="m322 154h48v12h-48z" />
    <path fill-rule="evenodd" class="a" d="m334 166h48v12h-48z" />
    <path fill-rule="evenodd" class="a" d="m358 178h36v12h-36z" />
    <path fill-rule="evenodd" class="a" d="m382 190h24v12h-24z" />
    <path fill-rule="evenodd" class="a" d="m394 202h24v12h-24z" />
    <path fill-rule="evenodd" class="a" d="m418 214h12v12h-12z" />
    <path fill-rule="evenodd" class="b" d="m226 22h12v24h-12z" />
    <path fill-rule="evenodd" class="b" d="m214 46h24v12h-24z" />
    <path fill-rule="evenodd" class="b" d="m214 58h36v12h-36z" />
    <path fill-rule="evenodd" class="b" d="m202 70h48v12h-48z" />
    <path fill-rule="evenodd" class="b" d="m202 82h48v12h-48z" />
    <path fill-rule="evenodd" class="b" d="m226 94h24v12h-24z" />
    <path fill-rule="evenodd" class="b" d="m238 106h12v12h-12z" />
    <path fill-rule="evenodd" class="b" d="m250 130h24v12h-24z" />
    <path fill-rule="evenodd" class="b" d="m250 142h48v12h-48z" />
    <path fill-rule="evenodd" class="b" d="m250 154h72v12h-72z" />
    <path fill-rule="evenodd" class="b" d="m250 166h84v12h-84z" />
    <path fill-rule="evenodd" class="b" d="m250 178h108v12h-108z" />
    <path fill-rule="evenodd" class="b" d="m262 190h120v12h-120z" />
    <path fill-rule="evenodd" class="b" d="m310 202h84v12h-84z" />
    <path fill-rule="evenodd" class="b" d="m370 214h48v12h-48z" />
    <path fill-rule="evenodd" class="b" d="m418 226h12v12h-12z" />
    <path fill-rule="evenodd" class="c" d="m250 22h12v12h-12z" />
    <path fill-rule="evenodd" class="d" d="m262 34h12v12h-12z" />
    <path fill-rule="evenodd" class="e" d="m274 46h12v12h-12z" />
    <path fill-rule="evenodd" class="e" d="m370 154h12v12h-12z" />
    <path fill-rule="evenodd" class="f" d="m202 58h12v12h-12z" />
    <path fill-rule="evenodd" class="f" d="m430 226h12v12h-12z" />
    <path fill-rule="evenodd" class="g" d="m190 82h12v24h-12z" />
    <path fill-rule="evenodd" class="g" d="m202 94h12v24h-12z" />
    <path fill-rule="evenodd" class="g" d="m214 106h24v12h-24z" />
    <path fill-rule="evenodd" class="g" d="m202 118h48v12h-48z" />
    <path fill-rule="evenodd" class="g" d="m214 130h36v12h-36z" />
    <path fill-rule="evenodd" class="g" d="m226 142h24v12h-24z" />
    <path fill-rule="evenodd" class="g" d="m238 154h12v24h-12z" />
    <path fill-rule="evenodd" class="h" d="m178 94h12v24h-12z" />
    <path fill-rule="evenodd" class="h" d="m190 106h12v12h-12z" />
    <path fill-rule="evenodd" class="h" d="m166 118h36v12h-36z" />
    <path fill-rule="evenodd" class="h" d="m154 130h48v12h-48z" />
    <path fill-rule="evenodd" class="h" d="m154 142h48v12h-48z" />
    <path fill-rule="evenodd" class="h" d="m142 154h60v12h-60z" />
    <path fill-rule="evenodd" class="h" d="m142 166h60v12h-60z" />
    <path fill-rule="evenodd" class="h" d="m130 178h72v12h-72z" />
    <path fill-rule="evenodd" class="h" d="m118 190h84v12h-84z" />
    <path fill-rule="evenodd" class="h" d="m118 202h84v12h-84z" />
    <path fill-rule="evenodd" class="h" d="m262 202h48v12h-48z" />
    <path fill-rule="evenodd" class="h" d="m106 214h48v12h-48z" />
    <path fill-rule="evenodd" class="h" d="m274 214h84v12h-84z" />
    <path fill-rule="evenodd" class="h" d="m286 226h12v12h-12z" />
    <path fill-rule="evenodd" class="h" d="m394 226h24v12h-24z" />
    <path fill-rule="evenodd" class="h" d="m406 238h24v12h-24z" />
    <path fill-rule="evenodd" class="h" d="m418 250h12v12h-12z" />
    <path fill-rule="evenodd" class="h" d="m322 262h48v12h-48z" />
    <path fill-rule="evenodd" class="h" d="m310 274h72v12h-72z" />
    <path fill-rule="evenodd" class="h" d="m322 286h72v12h-72z" />
    <path fill-rule="evenodd" class="h" d="m334 298h60v12h-60z" />
    <path fill-rule="evenodd" class="h" d="m334 310h60v12h-60z" />
    <path fill-rule="evenodd" class="h" d="m346 322h36v12h-36z" />
    <path fill-rule="evenodd" class="h" d="m358 334h24v12h-24z" />
    <path fill-rule="evenodd" class="h" d="m358 346h12v12h-12z" />
    <path fill-rule="evenodd" class="i" d="m214 94h12v12h-12z" />
    <path fill-rule="evenodd" class="j" d="m202 130h12v24h-12z" />
    <path fill-rule="evenodd" class="j" d="m214 142h12v12h-12z" />
    <path fill-rule="evenodd" class="j" d="m202 154h36v12h-36z" />
    <path fill-rule="evenodd" class="j" d="m202 166h36v12h-36z" />
    <path fill-rule="evenodd" class="j" d="m202 178h48v12h-48z" />
    <path fill-rule="evenodd" class="j" d="m202 190h48v12h-48z" />
    <path fill-rule="evenodd" class="j" d="m358 214h12v12h-12z" />
    <path fill-rule="evenodd" class="k" d="m346 130h12v12h-12z" />
    <path fill-rule="evenodd" class="l" d="m358 142h12v12h-12z" />
    <path fill-rule="evenodd" class="m" d="m130 166h12v12h-12z" />
    <path fill-rule="evenodd" class="n" d="m250 190h12v12h-12z" />
    <path fill-rule="evenodd" class="n" d="m202 202h60v12h-60z" />
    <path fill-rule="evenodd" class="n" d="m202 214h60v12h-60z" />
    <path fill-rule="evenodd" class="n" d="m214 226h48v12h-48z" />
    <path fill-rule="evenodd" class="n" d="m226 238h36v12h-36z" />
    <path fill-rule="evenodd" class="n" d="m238 250h24v12h-24z" />
    <path fill-rule="evenodd" class="n" d="m250 262h12v12h-12z" />
    <path fill-rule="evenodd" class="n" d="m394 310h12v12h-12z" />
    <path fill-rule="evenodd" class="n" d="m382 322h24v12h-24z" />
    <path fill-rule="evenodd" class="n" d="m382 334h24v12h-24z" />
    <path fill-rule="evenodd" class="n" d="m238 346h12v12h-12z" />
    <path fill-rule="evenodd" class="n" d="m370 346h24v12h-24z" />
    <path fill-rule="evenodd" class="n" d="m238 358h12v12h-12z" />
    <path fill-rule="evenodd" class="n" d="m370 358h12v12h-12z" />
    <path fill-rule="evenodd" class="n" d="m250 370h12v36h-12z" />
    <path fill-rule="evenodd" class="n" d="m262 394h12v12h-12z" />
    <path fill-rule="evenodd" class="n" d="m250 406h24v12h-24z" />
    <path fill-rule="evenodd" class="n" d="m262 418h12v48h-12z" />
    <path fill-rule="evenodd" class="o" d="m106 202h12v12h-12z" />
    <path fill-rule="evenodd" class="p" d="m154 214h48v12h-48z" />
    <path fill-rule="evenodd" class="p" d="m262 214h12v12h-12z" />
    <path fill-rule="evenodd" class="p" d="m106 226h12v12h-12z" />
    <path fill-rule="evenodd" class="p" d="m262 226h24v12h-24z" />
    <path fill-rule="evenodd" class="p" d="m262 238h24v12h-24z" />
    <path fill-rule="evenodd" class="p" d="m262 250h12v12h-12z" />
    <path fill-rule="evenodd" class="p" d="m142 262h48v12h-48z" />
    <path fill-rule="evenodd" class="p" d="m262 262h12v12h-12z" />
    <path fill-rule="evenodd" class="p" d="m142 274h60v12h-60z" />
    <path fill-rule="evenodd" class="p" d="m262 274h12v12h-12z" />
    <path fill-rule="evenodd" class="p" d="m142 286h60v12h-60z" />
    <path fill-rule="evenodd" class="p" d="m262 286h24v12h-24z" />
    <path fill-rule="evenodd" class="p" d="m298 286h24v12h-24z" />
    <path fill-rule="evenodd" class="p" d="m154 298h48v12h-48z" />
    <path fill-rule="evenodd" class="p" d="m274 298h60v12h-60z" />
    <path fill-rule="evenodd" class="p" d="m154 310h48v12h-48z" />
    <path fill-rule="evenodd" class="p" d="m274 310h60v12h-60z" />
    <path fill-rule="evenodd" class="p" d="m166 322h36v12h-36z" />
    <path fill-rule="evenodd" class="p" d="m286 322h60v12h-60z" />
    <path fill-rule="evenodd" class="p" d="m178 334h24v12h-24z" />
    <path fill-rule="evenodd" class="p" d="m286 334h72v12h-72z" />
    <path fill-rule="evenodd" class="p" d="m178 346h24v12h-24z" />
    <path fill-rule="evenodd" class="p" d="m298 346h60v12h-60z" />
    <path fill-rule="evenodd" class="p" d="m190 358h12v12h-12z" />
    <path fill-rule="evenodd" class="p" d="m310 358h48v12h-48z" />
    <path fill-rule="evenodd" class="p" d="m322 370h36v12h-36z" />
    <path fill-rule="evenodd" class="p" d="m274 406h24v12h-24z" />
    <path fill-rule="evenodd" class="p" d="m274 418h48v12h-48z" />
    <path fill-rule="evenodd" class="p" d="m274 430h48v12h-48z" />
    <path fill-rule="evenodd" class="p" d="m274 442h36v12h-36z" />
    <path fill-rule="evenodd" class="p" d="m274 454h24v12h-24z" />
    <path fill-rule="evenodd" class="p" d="m274 466h24v12h-24z" />
    <path fill-rule="evenodd" class="p" d="m274 478h12v24h-12z" />
    <path fill-rule="evenodd" class="q" d="m94 238h12v12h-12z" />
    <path fill-rule="evenodd" class="q" d="m94 226h12v12h-12z" />
    <rect fill="#fefefe" x="118" y="226" width="96" height="12" />
    <rect fill="#fefefe" x="298" y="226" width="84" height="12" />
    <rect fill="#fbfbfc" x="106" y="238" width="120" height="12" />
    <rect fill="#fbfbfc" x="286" y="238" width="120" height="12" />
    <rect fill="#f8f8f9" x="94" y="250" width="144" height="12" />
    <rect fill="#f8f8f9" x="274" y="250" width="144" height="12" />
    <rect fill="#f6f6f7" x="82" y="262" width="60" height="12" />
    <rect fill="#f6f6f7" x="190" y="262" width="60" height="12" />
    <rect fill="#f6f6f7" x="274" y="262" width="48" height="12" />
    <rect fill="#f6f6f7" x="370" y="262" width="60" height="12" />
    <rect fill="#f3f3f5" x="70" y="274" width="60" height="12" />
    <rect fill="#f3f3f5" x="202" y="274" width="48" height="12" />
    <rect fill="#f3f3f5" x="286" y="274" width="24" height="12" />
    <rect fill="#f3f3f5" x="382" y="274" width="60" height="12" />
    <rect fill="#f0f0f2" x="70" y="286" width="48" height="12" />
    <rect fill="#f0f0f2" x="214" y="286" width="48" height="12" />
    <rect fill="#f0f0f2" x="286" y="286" width="12" height="12" />
    <rect fill="#f0f0f2" x="394" y="286" width="48" height="12" />
    <rect fill="#eeeef0" x="70" y="298" width="36" height="12" />
    <rect fill="#eeeef0" x="226" y="298" width="48" height="12" />
    <rect fill="#eeeef0" x="406" y="298" width="36" height="12" />
    <rect fill="#ebebee" x="70" y="310" width="36" height="12" />
    <rect fill="#ebebee" x="226" y="310" width="48" height="12" />
    <rect fill="#ebebee" x="406" y="310" width="36" height="12" />
    <rect fill="#e8e8ec" x="70" y="322" width="36" height="12" />
    <rect fill="#e8e8ec" x="238" y="322" width="48" height="12" />
    <rect fill="#e8e8ec" x="406" y="322" width="36" height="12" />
    <rect fill="#e6e6e9" x="70" y="334" width="36" height="12" />
    <rect fill="#e6e6e9" x="238" y="334" width="48" height="12" />
    <rect fill="#e6e6e9" x="406" y="334" width="36" height="12" />
    <rect fill="#e3e3e7" x="70" y="346" width="48" height="12" />
    <rect fill="#e3e3e7" x="214" y="346" width="12" height="12" />
    <rect fill="#e3e3e7" x="250" y="346" width="48" height="12" />
    <rect fill="#e3e3e7" x="394" y="346" width="48" height="12" />
    <rect fill="#e1e1e5" x="70" y="358" width="48" height="12" />
    <rect fill="#e1e1e5" x="214" y="358" width="12" height="12" />
    <rect fill="#e1e1e5" x="250" y="358" width="48" height="12" />
    <rect fill="#e1e1e5" x="394" y="358" width="48" height="12" />
    <rect fill="#dedee2" x="82" y="370" width="60" height="12" />
    <rect fill="#dedee2" x="190" y="370" width="48" height="12" />
    <rect fill="#dedee2" x="262" y="370" width="60" height="12" />
    <rect fill="#dedee2" x="370" y="370" width="60" height="12" />
    <rect fill="#dbdbe0" x="82" y="382" width="156" height="12" />
    <rect fill="#dbdbe0" x="274" y="382" width="156" height="12" />
    <rect fill="#d9d9de" x="94" y="394" width="132" height="12" />
    <rect fill="#d9d9de" x="286" y="394" width="132" height="12" />
    <rect fill="#d6d6db" x="118" y="406" width="96" height="12" />
    <rect fill="#d6d6db" x="298" y="406" width="96" height="12" />
    <rect fill="#d3d3d9" x="154" y="418" width="24" height="12" />
    <rect fill="#d3d3d9" x="334" y="418" width="24" height="12" />
    <rect fill="#fefefe" x="382" y="226" width="12" height="12" />
    <rect fill="#f3f3f5" x="250" y="274" width="12" height="12" />
    <path fill-rule="evenodd" class="s" d="m430 238h12v12h-12z" />
    <path fill-rule="evenodd" class="t" d="m130 274h12v12h-12z" />
    <path fill-rule="evenodd" class="t" d="m298 358h12v12h-12z" />
    <path fill-rule="evenodd" class="t" d="m298 454h12v12h-12z" />
    <path fill-rule="evenodd" class="u" d="m274 274h12v12h-12z" />
    <path fill-rule="evenodd" class="v" d="m118 286h12v12h-12z" />
    <path fill-rule="evenodd" class="v" d="m106 322h12v12h-12z" />
    <path fill-rule="evenodd" class="v" d="m106 298h24v12h-24z" />
    <path fill-rule="evenodd" class="v" d="m106 310h36v12h-36z" />
    <path fill-rule="evenodd" class="v" d="m118 322h24v12h-24z" />
    <path fill-rule="evenodd" class="v" d="m118 334h36v12h-36z" />
    <path fill-rule="evenodd" class="v" d="m118 346h36v12h-36z" />
    <path fill-rule="evenodd" class="v" d="m130 358h24v12h-24z" />
    <path fill-rule="evenodd" class="v" d="m142 370h24v12h-24z" />
    <path fill-rule="evenodd" class="v" d="m214 406h12v12h-12z" />
    <path fill-rule="evenodd" class="v" d="m130 418h12v12h-12z" />
    <path fill-rule="evenodd" class="v" d="m214 418h12v12h-12z" />
    <path fill-rule="evenodd" class="v" d="m130 430h60v12h-60z" />
    <path fill-rule="evenodd" class="v" d="m214 430h24v12h-24z" />
    <path fill-rule="evenodd" class="v" d="m142 442h60v12h-60z" />
    <path fill-rule="evenodd" class="v" d="m214 442h24v12h-24z" />
    <path fill-rule="evenodd" class="v" d="m166 454h36v12h-36z" />
    <path fill-rule="evenodd" class="v" d="m214 454h36v12h-36z" />
    <path fill-rule="evenodd" class="v" d="m214 466h48v12h-48z" />
    <path fill-rule="evenodd" class="v" d="m238 478h24v12h-24z" />
    <path fill-rule="evenodd" class="v" d="m262 490h12v12h-12z" />
    <path fill-rule="evenodd" class="w" d="m130 286h12v12h-12z" />
    <path fill-rule="evenodd" class="w" d="m202 286h12v12h-12z" />
    <path fill-rule="evenodd" class="w" d="m130 298h24v12h-24z" />
    <path fill-rule="evenodd" class="w" d="m202 298h24v12h-24z" />
    <path fill-rule="evenodd" class="w" d="m142 310h12v12h-12z" />
    <path fill-rule="evenodd" class="w" d="m202 310h24v12h-24z" />
    <path fill-rule="evenodd" class="w" d="m142 322h24v12h-24z" />
    <path fill-rule="evenodd" class="w" d="m202 322h36v12h-36z" />
    <path fill-rule="evenodd" class="w" d="m154 334h24v12h-24z" />
    <path fill-rule="evenodd" class="w" d="m202 334h36v12h-36z" />
    <path fill-rule="evenodd" class="w" d="m154 346h24v12h-24z" />
    <path fill-rule="evenodd" class="w" d="m202 346h12v12h-12z" />
    <path fill-rule="evenodd" class="w" d="m226 346h12v12h-12z" />
    <path fill-rule="evenodd" class="w" d="m154 358h36v12h-36z" />
    <path fill-rule="evenodd" class="w" d="m226 358h12v12h-12z" />
    <path fill-rule="evenodd" class="w" d="m358 358h12v12h-12z" />
    <path fill-rule="evenodd" class="w" d="m166 370h24v12h-24z" />
    <path fill-rule="evenodd" class="w" d="m238 370h12v12h-12z" />
    <path fill-rule="evenodd" class="w" d="m358 370h12v12h-12z" />
    <path fill-rule="evenodd" class="w" d="m238 382h12v24h-12z" />
    <path fill-rule="evenodd" class="w" d="m226 406h24v12h-24z" />
    <path fill-rule="evenodd" class="w" d="m394 406h12v12h-12z" />
    <path fill-rule="evenodd" class="w" d="m190 418h24v12h-24z" />
    <path fill-rule="evenodd" class="w" d="m226 418h36v12h-36z" />
    <path fill-rule="evenodd" class="w" d="m370 418h24v12h-24z" />
    <path fill-rule="evenodd" class="w" d="m190 430h24v12h-24z" />
    <path fill-rule="evenodd" class="w" d="m238 430h24v12h-24z" />
    <path fill-rule="evenodd" class="w" d="m322 430h60v12h-60z" />
    <path fill-rule="evenodd" class="w" d="m202 442h12v12h-12z" />
    <path fill-rule="evenodd" class="w" d="m238 442h24v12h-24z" />
    <path fill-rule="evenodd" class="w" d="m310 442h60v12h-60z" />
    <path fill-rule="evenodd" class="w" d="m202 454h12v12h-12z" />
    <path fill-rule="evenodd" class="w" d="m250 454h12v12h-12z" />
    <path fill-rule="evenodd" class="w" d="m310 454h36v12h-36z" />
    <path fill-rule="evenodd" class="w" d="m202 466h12v12h-12z" />
    <path fill-rule="evenodd" class="w" d="m262 466h12v12h-12z" />
    <path fill-rule="evenodd" class="w" d="m298 466h24v12h-24z" />
    <path fill-rule="evenodd" class="w" d="m262 478h12v12h-12z" />
    <path fill-rule="evenodd" class="w" d="m286 478h24v12h-24z" />
    <path fill-rule="evenodd" class="x" d="m394 298h12v12h-12z" />
    <path fill-rule="evenodd" class="y" d="m106 334h12v12h-12z" />
    <path fill-rule="evenodd" class="z" d="m118 358h12v12h-12z" />
    <rect fill="#e1e1e5" x="202" y="358" width="12" height="12" />
    <rect fill="#d3d3d9" x="358" y="418" width="12" height="12" />
    <rect fill="#e1e1e5" x="382" y="358" width="12" height="12" />
    <rect fill="#d9d9de" x="226" y="394" width="12" height="12" />
    <rect fill="#dbdbe0" x="262" y="382" width="12" height="12" />
    <rect fill="#d9d9de" x="274" y="394" width="12" height="12" />
    <rect fill="#d3d3d9" x="178" y="418" width="12" height="12" />
    <rect fill="#d3d3d9" x="322" y="418" width="12" height="12" />
    <rect fill="#d3d3d9" x="142" y="418" width="12" height="12" />
    <path fill-rule="evenodd" class="F" d="m394 418h12v12h-12z" />
    <path fill-rule="evenodd" class="G" d="m382 430h12v12h-12z" />
    <path fill-rule="evenodd" class="H" d="m322 466h12v12h-12z" />
    <path fill-rule="evenodd" class="I" d="m226 478h12v12h-12z" />
    <path fill-rule="evenodd" class="J" d="m286 490h12v12h-12z" />
</svg>